<?xml version="1.0" encoding="UTF-8"?>
<!DOCTYPE svg PUBLIC "-//W3C//DTD SVG 1.1//EN" "http://www.w3.org/Graphics/SVG/1.1/DTD/svg11.dtd">
<!-- Creator: CorelDRAW 2019 (64-Bit) -->
<svg xmlns="http://www.w3.org/2000/svg" xml:space="preserve" width="33.1102in" height="23.3858in" version="1.1" style="shape-rendering:geometricPrecision; text-rendering:geometricPrecision; image-rendering:optimizeQuality; fill-rule:evenodd; clip-rule:evenodd"
viewBox="0 0 33110.24 23385.83"
 xmlns:xlink="http://www.w3.org/1999/xlink">
 <defs>
  <style type="text/css">
   <![CDATA[
    .fil0 {fill:#FFFBD6}
   ]]>
  </style>
   <clipPath id="id0">
    <path d="M29910.44 3187.7l543.48 121.49c52.12,10.34 113.68,21.17 176.2,31.02l250.71 83.74c98.05,51.08 199.46,99.5 288.3,137.06 35.63,15.07 79.19,32.31 125.13,49.7l109.89 63.69c92.07,50.01 239.96,121.38 338.41,163.35 41.43,30.6 82.06,59.44 120.32,85.28l20.05 12.73c116.29,111.77 262.12,236.41 383.93,327.5l4.04 3.01c83.51,115.27 183.38,239.94 272.17,339.18 39.99,76.52 81.52,150.82 120.67,215.26 22.34,36.77 47.18,75.71 73.58,115.52 16.82,64.94 34.67,128.93 50.04,178.35 8.58,27.59 19.09,59.35 30.7,92.97 8.41,37.81 16.81,73.31 24.59,103.54 7.49,29.11 16.84,62.83 27.25,98.51 3.11,49.98 6.81,97.49 10.8,136.77 6.24,61.49 17.32,143.12 29.74,221.99 -0.33,44.69 0.69,89.42 2.24,134.07 -4.25,64.57 -7.56,134.53 -9.3,196.93l-2364.23 15096.95 -27.27 239.98c-11.02,8.31 -22.07,16.72 -33.11,25.2l-677.64 -105.15 -197.03 -25.04c-19.8,-2.01 -41.68,-3.94 -64.92,-5.77l-28913.21 -4767.08c-57.51,-16.74 -125.93,-34.98 -191.09,-51.08 -8.44,-30.78 -17.19,-61.36 -26.41,-91.82 5.63,-54.89 10.47,-110.17 13.78,-158.4 20.85,-108.18 44.08,-263.11 54.31,-363.93 2.41,-23.73 4.71,-50.48 6.84,-78.94l1641.02 -8740.92c26.17,-54.05 50.5,-109.48 74.02,-164.74 54.56,-14.46 106.94,-29.27 148.85,-42.31 64.41,-20.03 151.5,-50.59 231.91,-80.93l25496.66 -3537.99c112.6,-0.96 277.08,-9.55 382.41,-20.24 79.76,-8.09 193.39,-24.33 290.95,-41.07 17.99,-0.57 35.04,-1.26 50.78,-2.06 110.87,-5.61 287.17,-23.47 396.97,-40.24l713.51 43.89z"/>
   </clipPath>
 </defs>
 <g id="Layer_x0020_1">
  <metadata id="CorelCorpID_0Corel-Layer"/>
  <rect class="fil0" x="-672.79" y="-461.39" width="34800" height="24535.76"/>
  <g style="clip-path:url(#id0)">
   <image transform="matrix(0.822726 0.130942 -0.130942 0.822726 -1630.78 -11457.8)" x="0" y="0" width="56875.01" height="40222.23" xlink:href="map_Images\map_ImgID1.png"/>
  </g>
 </g>
</svg>
